<?xml version="1.0" standalone="no"?>
<!DOCTYPE svg PUBLIC "-//W3C//DTD SVG 20010904//EN"
 "http://www.w3.org/TR/2001/REC-SVG-20010904/DTD/svg10.dtd">
<svg version="1.0" xmlns="http://www.w3.org/2000/svg"
 width="16.000000pt" height="16.000000pt" viewBox="0 0 16.000000 16.000000"
 preserveAspectRatio="xMidYMid meet">
<metadata>
Created by potrace 1.11, written by Peter Selinger 2001-2013
</metadata>
<g transform="translate(0.000000,16.000000) scale(0.002421,-0.002421)"
fill="#000000" stroke="none">
<path d="M1908 5018 c-109 -14 -198 -79 -243 -180 -27 -60 -28 -71 -30 -222
l-1 -159 -55 -14 c-167 -43 -299 -150 -379 -308 -54 -108 -70 -185 -66 -315 4
-124 27 -206 83 -297 90 -146 211 -237 367 -277 l51 -13 1 -684 c0 -652 3
-738 26 -766 6 -7 7 -13 4 -13 -9 0 43 -69 74 -98 14 -13 50 -35 80 -50 l55
-26 1256 -1 1255 0 68 34 c73 37 113 80 149 158 l22 48 2 695 c1 382 3 705 3
718 0 21 3 22 95 22 52 0 95 2 95 4 0 2 -43 92 -95 201 l-96 197 0 538 c-1
570 -2 589 -48 664 -32 51 -82 93 -144 121 l-58 27 -1207 1 c-664 1 -1233 -1
-1264 -5z m-273 -1173 c0 -217 -4 -335 -10 -335 -5 0 -31 14 -57 30 -169 106
-199 391 -59 562 19 24 100 78 116 78 7 0 10 -104 10 -335z"/>
<path d="M3 3850 l0 -581 231 2 c154 1 254 6 301 15 133 27 286 120 364 221
152 196 147 517 -10 704 -37 44 -155 139 -173 139 -4 0 -27 9 -52 21 -93 42
-204 57 -440 58 l-221 2 0 -581z m509 300 c101 -37 167 -105 194 -197 42 -145
-10 -303 -120 -368 -68 -40 -126 -56 -218 -62 l-88 -6 0 333 0 332 88 -5 c52
-4 111 -14 144 -27z"/>
<path d="M4912 3850 l0 -580 367 0 368 0 1 125 1 125 -230 0 -229 0 0 455 0
455 -139 0 -139 0 0 -580z"/>
<path d="M5523 4338 c35 -51 103 -151 152 -223 49 -71 113 -166 144 -210 l56
-80 2 -270 c1 -148 2 -274 2 -278 1 -4 63 -6 139 -5 l137 3 0 278 0 277 220
292 c121 161 222 296 223 300 2 5 -64 8 -146 8 l-149 0 -34 -49 c-65 -96 -224
-311 -229 -310 -4 0 -115 165 -145 217 -5 9 -12 19 -15 22 -14 14 -70 102 -70
110 0 6 -69 10 -176 10 l-175 0 64 -92z"/>
</g>
</svg>
